<svg width="14" height="12" viewBox="0 0 14 12" fill="none" xmlns="http://www.w3.org/2000/svg">
<path d="M6.67174 4.45072C6.67174 4.39584 6.64869 4.34322 6.60767 4.30442C6.56665 4.26562 6.51102 4.24382 6.453 4.24381H4.70311C4.6451 4.24382 4.58947 4.26562 4.54844 4.30442C4.50742 4.34322 4.48438 4.39584 4.48438 4.45072V6.10593C4.48438 6.1608 4.50742 6.21342 4.54844 6.25222C4.58947 6.29102 4.6451 6.31282 4.70311 6.31283H6.453C6.51102 6.31282 6.56665 6.29102 6.60767 6.25222C6.64869 6.21342 6.67174 6.1608 6.67174 6.10593V4.45072ZM6.23427 5.89902H4.92185V4.65762H6.23427V5.89902Z" fill="#1672EC"/>
<path d="M6.453 6.93033H4.70311C4.6451 6.93034 4.58947 6.95214 4.54844 6.99094C4.50742 7.02974 4.48438 7.08236 4.48438 7.13724V8.79244C4.48438 8.84732 4.50742 8.89994 4.54844 8.93874C4.58947 8.97754 4.6451 8.99934 4.70311 8.99935H6.453C6.51102 8.99934 6.56665 8.97754 6.60767 8.93874C6.64869 8.89994 6.67174 8.84732 6.67174 8.79244V7.13724C6.67174 7.08236 6.64869 7.02974 6.60767 6.99094C6.56665 6.95214 6.51102 6.93034 6.453 6.93033ZM6.23427 8.58554H4.92185V7.34414H6.23427V8.58554Z" fill="#1672EC"/>
<path d="M1.85741 6.93033C1.7994 6.93034 1.74376 6.95214 1.70274 6.99094C1.66172 7.02974 1.63867 7.08236 1.63867 7.13724V8.79244C1.63867 8.84732 1.66172 8.89994 1.70274 8.93874C1.74376 8.97754 1.7994 8.99934 1.85741 8.99935H3.6073C3.66531 8.99934 3.72095 8.97754 3.76197 8.93874C3.80299 8.89994 3.82603 8.84732 3.82604 8.79244V7.13724C3.82603 7.08236 3.80299 7.02974 3.76197 6.99094C3.72095 6.95214 3.66531 6.93034 3.6073 6.93033H1.85741ZM3.38856 8.58554H2.07614V7.34414H3.38856V8.58554Z" fill="#1672EC"/>
<path d="M9.95471 1.03328H4.04883V1.44708H9.95471V1.03328Z" fill="#1672EC"/>
<path d="M11.3749 2.48282C11.6359 2.48254 11.8861 2.38436 12.0706 2.20981C12.2552 2.03526 12.359 1.79861 12.3593 1.55176V0.931056C12.3593 0.684124 12.2555 0.447307 12.071 0.2727C11.8864 0.0980931 11.636 0 11.3749 0C11.1139 0 10.8635 0.0980931 10.6789 0.2727C10.4943 0.447307 10.3906 0.684124 10.3906 0.931056V1.55176C10.3909 1.79861 10.4947 2.03526 10.6792 2.20981C10.8638 2.38436 11.114 2.48254 11.3749 2.48282ZM10.8281 0.931056C10.8281 0.793872 10.8857 0.662306 10.9883 0.565302C11.0908 0.468299 11.2299 0.413803 11.3749 0.413803C11.52 0.413803 11.6591 0.468299 11.7616 0.565302C11.8642 0.662306 11.9218 0.793872 11.9218 0.931056V1.55176C11.9218 1.68894 11.8642 1.82051 11.7616 1.91751C11.6591 2.01452 11.52 2.06901 11.3749 2.06901C11.2299 2.06901 11.0908 2.01452 10.9883 1.91751C10.8857 1.82051 10.8281 1.68894 10.8281 1.55176V0.931056Z" fill="#1672EC"/>
<path d="M2.62299 2.48282C2.88395 2.48254 3.13415 2.38436 3.31868 2.20981C3.50321 2.03526 3.60701 1.79861 3.6073 1.55176V0.931056C3.6073 0.684124 3.5036 0.447307 3.319 0.2727C3.13441 0.0980931 2.88404 0 2.62299 0C2.36193 0 2.11157 0.0980931 1.92697 0.2727C1.74238 0.447307 1.63867 0.684124 1.63867 0.931056V1.55176C1.63897 1.79861 1.74276 2.03526 1.9273 2.20981C2.11183 2.38436 2.36202 2.48254 2.62299 2.48282ZM2.07614 0.931056C2.07614 0.793872 2.13376 0.662306 2.23631 0.565302C2.33886 0.468299 2.47795 0.413803 2.62299 0.413803C2.76802 0.413803 2.90711 0.468299 3.00966 0.565302C3.11221 0.662306 3.16983 0.793872 3.16983 0.931056V1.55176C3.16983 1.68894 3.11221 1.82051 3.00966 1.91751C2.90711 2.01452 2.76802 2.06901 2.62299 2.06901C2.47795 2.06901 2.33886 2.01452 2.23631 1.91751C2.13376 1.82051 2.07614 1.68894 2.07614 1.55176V0.931056Z" fill="#1672EC"/>
<path d="M9.51354 5.32626V4.45072C9.51353 4.39584 9.49049 4.34322 9.44947 4.30442C9.40845 4.26562 9.35281 4.24382 9.2948 4.24381H7.54491C7.4869 4.24382 7.43126 4.26562 7.39024 4.30442C7.34922 4.34322 7.32617 4.39584 7.32617 4.45072V6.10593C7.32617 6.1608 7.34922 6.21342 7.39024 6.25222C7.43126 6.29102 7.4869 6.31282 7.54491 6.31283H7.8249C7.97496 6.16204 8.1383 6.02361 8.31317 5.89902H7.76364V4.65762H9.07606V5.47811C9.21846 5.41906 9.36456 5.36835 9.51354 5.32626Z" fill="#1672EC"/>
<path d="M12.3592 5.57702V4.45072C12.3592 4.39584 12.3362 4.34322 12.2952 4.30442C12.2541 4.26562 12.1985 4.24382 12.1405 4.24381H10.3906C10.3326 4.24382 10.277 4.26562 10.2359 4.30442C10.1949 4.34322 10.1719 4.39584 10.1719 4.45072V5.19922C10.3171 5.18325 10.4632 5.17512 10.6093 5.17487V4.65762H11.9218V5.39417C12.0715 5.44638 12.2176 5.50745 12.3592 5.57702Z" fill="#1672EC"/>
<path d="M13.1242 1.03328H12.7961V1.44708H13.1242C13.2402 1.4472 13.3514 1.49083 13.4334 1.56841C13.5154 1.64599 13.5615 1.75117 13.5617 1.86088V3.10229H0.437473V1.86088C0.437597 1.75117 0.483727 1.64599 0.565742 1.56841C0.647758 1.49083 0.758959 1.4472 0.874946 1.44708H1.20305V1.03328H0.874946C0.642977 1.03353 0.420586 1.1208 0.256559 1.27595C0.0925322 1.43111 0.000265438 1.64147 0 1.86088L0 9.30933C0.000265438 9.52874 0.0925322 9.7391 0.256559 9.89425C0.420586 10.0494 0.642977 10.1367 0.874946 10.1369H7.05576C6.99826 10.0019 6.9495 9.86374 6.90975 9.72313H0.874946C0.758959 9.72301 0.647758 9.67938 0.565742 9.6018C0.483727 9.52422 0.437597 9.41904 0.437473 9.30933V3.51609H13.5617V6.49058C13.7298 6.68364 13.8764 6.8926 13.9991 7.11414V1.86088C13.9989 1.64147 13.9066 1.43111 13.7426 1.27595C13.5786 1.1208 13.3562 1.03353 13.1242 1.03328Z" fill="#1672EC"/>
<path d="M10.6092 5.58707C9.93861 5.58707 9.2831 5.77516 8.72555 6.12755C8.168 6.47993 7.73344 6.98079 7.47683 7.56679C7.22022 8.15279 7.15308 8.7976 7.2839 9.41969C7.41472 10.0418 7.73762 10.6132 8.21178 11.0617C8.68594 11.5102 9.29005 11.8157 9.94773 11.9394C10.6054 12.0631 11.2871 11.9996 11.9066 11.7569C12.5261 11.5142 13.0557 11.1031 13.4282 10.5757C13.8007 10.0484 13.9996 9.42832 13.9996 8.79404C13.9986 7.9438 13.641 7.12865 13.0054 6.52743C12.3698 5.92622 11.5081 5.58803 10.6092 5.58707ZM10.6092 11.5872C10.0251 11.5872 9.45421 11.4234 8.9686 11.1165C8.48299 10.8096 8.10451 10.3733 7.881 9.86294C7.6575 9.35256 7.59902 8.79095 7.71296 8.24912C7.8269 7.7073 8.10815 7.20961 8.52112 6.81898C8.9341 6.42835 9.46026 6.16232 10.0331 6.05455C10.6059 5.94677 11.1996 6.00209 11.7392 6.21349C12.2788 6.4249 12.74 6.78291 13.0644 7.24224C13.3889 7.70158 13.5621 8.24161 13.5621 8.79404C13.5612 9.53458 13.2498 10.2445 12.6962 10.7682C12.1426 11.2918 11.3921 11.5864 10.6092 11.5872Z" fill="#1672EC"/>
<path d="M12.0965 7.50739L9.85155 9.63646L8.90643 8.74016C8.86542 8.70147 8.80986 8.67974 8.75194 8.67974C8.69402 8.67975 8.63847 8.70148 8.59746 8.74017C8.55645 8.77887 8.53335 8.83136 8.5332 8.88615C8.53306 8.94094 8.5559 8.99354 8.5967 9.03242L9.69668 10.0756C9.73803 10.1139 9.79364 10.1354 9.85155 10.1354C9.90946 10.1354 9.96506 10.1139 10.0064 10.0756L12.4062 7.79965C12.447 7.76077 12.4699 7.70817 12.4697 7.65338C12.4696 7.59859 12.4465 7.54609 12.4055 7.5074C12.3644 7.46871 12.3089 7.44697 12.251 7.44697C12.1931 7.44697 12.1375 7.4687 12.0965 7.50739Z" fill="#1672EC"/>
</svg>
