<svg width="12" height="12" viewBox="0 0 12 12" fill="none" xmlns="http://www.w3.org/2000/svg">
<path d="M0 8.64576V11.3807L1.24006 10.9663C1.96513 10.7848 2.93699 11.1319 3.87675 11.4674C4.64395 11.7412 5.36855 12 5.99262 12C7.45225 12 9.41109 10.9196 10.7575 9.90853C11.731 9.17746 12.1637 7.97603 11.835 7.5052C11.7134 7.33115 11.4037 7.10809 10.6934 7.57049C9.17507 8.55877 6.70224 8.57136 6.67743 8.57136H5.30775C5.10771 8.57136 4.98585 8.45236 4.78781 8.24195C4.50992 7.9469 4.12943 7.54277 3.25314 7.54277C1.85209 7.54277 0.154698 8.55281 0.0831343 8.5958L0 8.64576ZM0.342436 8.84197C0.69691 8.64207 2.11434 7.88563 3.25314 7.88563C3.98162 7.88563 4.27757 8.1999 4.53861 8.47714C4.74093 8.69203 4.9502 8.91422 5.30775 8.91422H5.84001H6.67723C6.67729 8.91422 6.67736 8.91422 6.67749 8.91422C6.69736 8.91436 7.53358 8.92628 7.53358 9.42852C7.53358 9.53714 7.4988 9.62312 7.42724 9.69122C7.23562 9.87377 6.82804 9.8952 6.67295 9.88804C6.65462 9.88855 4.84132 9.92796 3.8345 9.32475C3.7865 9.29598 3.73968 9.26628 3.69563 9.23452L3.59559 9.37365L3.49552 9.51283C4.5576 10.2784 6.5953 10.2335 6.6684 10.2306C6.69508 10.232 7.32404 10.2617 7.6624 9.94047C7.80218 9.80781 7.87602 9.63082 7.87602 9.42852C7.87602 9.17345 7.76506 8.98896 7.60454 8.8581C8.50136 8.76482 9.86763 8.51691 10.88 7.85791C11.2124 7.64174 11.4709 7.58181 11.5543 7.70161C11.7393 7.96659 11.4432 8.96498 10.552 9.63424C9.30937 10.5674 7.36959 11.6571 5.99262 11.6571C5.4278 11.6571 4.73029 11.4081 3.99178 11.1444C3.20559 10.8637 2.39825 10.5754 1.6788 10.5754C1.49428 10.5754 1.31543 10.5944 1.14435 10.6373L0.342436 10.905V8.84197Z" fill="#404454"/>
<path d="M2.03564 5.65844C2.03564 6.69821 2.88056 7.54419 3.91904 7.54419C4.95752 7.54419 5.80244 6.69821 5.80244 5.65844C5.80244 4.61866 4.95752 3.77268 3.91904 3.77268C2.88056 3.77268 2.03564 4.61866 2.03564 5.65844ZM3.91904 4.11555C4.76871 4.11555 5.46 4.8077 5.46 5.65844C5.46 6.50917 4.76871 7.20132 3.91904 7.20132C3.06937 7.20132 2.37808 6.50917 2.37808 5.65844C2.37808 4.8077 3.06937 4.11555 3.91904 4.11555Z" fill="#404454"/>
<path d="M3.74737 6.16998H3.40494H3.23372V6.34141V6.51284H3.74737V6.68428H3.91859H4.08981V6.51284H4.77468V5.48425H4.08981V5.14139H4.43224H4.60346V4.96995V4.79852H4.08981V4.62709H3.91859H3.74737V4.79852H3.0625V5.82712H3.74737V6.16998ZM4.08981 5.82712H4.43224V6.16998H4.08981V5.82712ZM3.40494 5.48425V5.14139H3.74737V5.48425H3.40494Z" fill="#404454"/>
<path d="M9.39853 4.45816C10.437 4.45816 11.2819 3.61218 11.2819 2.57241C11.2819 1.53263 10.437 0.686653 9.39853 0.686653C8.36006 0.686653 7.51514 1.53263 7.51514 2.57241C7.51514 3.61218 8.36006 4.45816 9.39853 4.45816ZM9.39853 1.02952C10.2482 1.02952 10.9395 1.72167 10.9395 2.57241C10.9395 3.42314 10.2482 4.1153 9.39853 4.1153C8.54886 4.1153 7.85757 3.42314 7.85757 2.57241C7.85757 1.72167 8.54886 1.02952 9.39853 1.02952Z" fill="#404454"/>
<path d="M9.22711 3.08395H8.88467H8.71345V3.25538V3.42681H9.22711V3.59825H9.39833H9.56954V3.42681H10.2544V2.39822H9.56954V2.05536H9.91198H10.0832V1.88393V1.71249H9.56954V1.54106H9.39833H9.22711V1.71249H8.54224V2.74109H9.22711V3.08395ZM9.56954 2.74109H9.91198V3.08395H9.56954V2.74109ZM8.88467 2.39822V2.05536H9.22711V2.39822H8.88467Z" fill="#404454"/>
<path d="M5.28843 0C4.24995 0 3.40503 0.845977 3.40503 1.88575C3.40503 2.92553 4.24995 3.77151 5.28843 3.77151C6.3269 3.77151 7.17182 2.92553 7.17182 1.88575C7.17182 0.845977 6.3269 0 5.28843 0ZM5.28843 3.42864C4.43876 3.42864 3.74746 2.73649 3.74746 1.88575C3.74746 1.03502 4.43876 0.342864 5.28843 0.342864C6.13809 0.342864 6.82939 1.03502 6.82939 1.88575C6.82939 2.73649 6.13809 3.42864 5.28843 3.42864Z" fill="#404454"/>
<path d="M5.46041 1.36871H5.80285H5.97407V1.19728V1.02585H5.46041V0.854416H5.28919H5.11798V1.02585H4.43311V2.05444H5.11798V2.3973H4.77554H4.60432V2.56874V2.74017H5.11798V2.9116H5.28919H5.46041V2.74017H6.14528V1.71158H5.46041V1.36871ZM5.11798 1.71158H4.77554V1.36871H5.11798V1.71158ZM5.80285 2.05444V2.3973H5.46041V2.05444H5.80285Z" fill="#404454"/>
<path d="M6.14575 6.34509C6.14575 7.38486 6.99067 8.23084 8.02915 8.23084C9.06762 8.23084 9.91254 7.38486 9.91254 6.34509C9.91254 5.30531 9.06762 4.45934 8.02915 4.45934C6.99067 4.45934 6.14575 5.30531 6.14575 6.34509ZM8.02915 4.8022C8.87882 4.8022 9.57011 5.49436 9.57011 6.34509C9.57011 7.19582 8.87882 7.88798 8.02915 7.88798C7.17948 7.88798 6.48819 7.19582 6.48819 6.34509C6.48819 5.49436 7.17948 4.8022 8.02915 4.8022Z" fill="#404454"/>
<path d="M7.85772 6.85663H7.51529H7.34407V7.02806V7.1995H7.85772V7.37093H8.02894H8.20016V7.1995H8.88503V6.1709H8.20016V5.82804H8.54259H8.71381V5.65661V5.48518H8.20016V5.31374H8.02894H7.85772V5.48518H7.17285V6.51377H7.85772V6.85663ZM8.20016 6.51377H8.54259V6.85663H8.20016V6.51377ZM7.51529 6.1709V5.82804H7.85772V6.1709H7.51529Z" fill="#404454"/>
</svg>
