<svg width="12" height="12" viewBox="0 0 12 12" fill="none" xmlns="http://www.w3.org/2000/svg">
<path d="M6.38553 8.78287C6.38553 9.42271 6.38553 10.0639 6.38553 10.7037C6.38553 10.805 6.39353 10.9103 6.38154 11.0103C6.38953 10.9517 6.39753 10.8917 6.40553 10.833C6.4002 10.8637 6.3922 10.8917 6.38154 10.9197C6.4042 10.8664 6.42686 10.813 6.44819 10.761C6.43352 10.7944 6.41619 10.8237 6.39487 10.853C6.42952 10.8077 6.46418 10.7637 6.49884 10.7184C6.47618 10.7464 6.45219 10.7704 6.42419 10.7917C6.46951 10.757 6.5135 10.7224 6.55883 10.6877C6.53483 10.7051 6.5095 10.7197 6.48284 10.7317C6.53616 10.7091 6.58948 10.6864 6.64147 10.6651C6.61348 10.6757 6.58548 10.6837 6.55616 10.6891C6.61481 10.6811 6.6748 10.6731 6.73345 10.6651C6.66947 10.6731 6.60281 10.6691 6.53883 10.6691C6.4042 10.6691 6.26823 10.6691 6.1336 10.6691C5.68304 10.6691 5.23249 10.6691 4.78193 10.6691C4.23273 10.6691 3.6822 10.6691 3.133 10.6691C2.66112 10.6691 2.18924 10.6691 1.71735 10.6691C1.49341 10.6691 1.26946 10.6731 1.04552 10.6691C1.02552 10.6691 1.0042 10.6677 0.984201 10.6651C1.04285 10.6731 1.10284 10.6811 1.16149 10.6891C1.13216 10.6837 1.10417 10.6757 1.07618 10.6651C1.1295 10.6877 1.18282 10.7104 1.23481 10.7317C1.20815 10.7197 1.18282 10.7051 1.15882 10.6877C1.20415 10.7224 1.24814 10.757 1.29346 10.7917C1.26547 10.7704 1.24014 10.7464 1.21881 10.7184C1.25347 10.7637 1.28813 10.8077 1.32278 10.853C1.30146 10.8237 1.28413 10.7944 1.26946 10.761C1.29213 10.8144 1.31479 10.8677 1.33611 10.9197C1.32545 10.8917 1.31745 10.8624 1.31212 10.833C1.32012 10.8917 1.32812 10.9517 1.33611 11.0103C1.32412 10.909 1.33212 10.8037 1.33212 10.7011C1.33212 10.4625 1.33212 10.2225 1.33212 9.9839C1.33212 9.62799 1.33212 9.27208 1.33212 8.91617C1.33212 8.48028 1.33212 8.04438 1.33212 7.60982C1.33212 7.13261 1.33212 6.65406 1.33212 6.17685C1.33212 5.6943 1.33212 5.21175 1.33212 4.7292C1.33212 4.27998 1.33212 3.83076 1.33212 3.3802C1.33212 3.00163 1.33212 2.62172 1.33212 2.24315C1.33212 1.97122 1.33212 1.70062 1.33212 1.42868C1.33212 1.30205 1.33078 1.17675 1.33212 1.05011C1.33212 1.02745 1.33345 1.00479 1.33611 0.982128C1.32812 1.04078 1.32012 1.10077 1.31212 1.15942C1.31745 1.13009 1.32545 1.1021 1.33611 1.07411C1.31345 1.12743 1.29079 1.18075 1.26946 1.23273C1.28413 1.20074 1.30146 1.17141 1.32278 1.14342C1.28813 1.18874 1.25347 1.23273 1.21881 1.27805C1.23747 1.25539 1.25747 1.23673 1.28013 1.21807C1.23481 1.25273 1.19082 1.28739 1.14549 1.32204C1.17349 1.30072 1.20281 1.28472 1.23614 1.27006C1.18282 1.29272 1.1295 1.31538 1.07751 1.33671C1.1055 1.32604 1.1335 1.31938 1.16282 1.31405C1.10417 1.32204 1.04419 1.33004 0.985534 1.33804C1.04952 1.33004 1.11484 1.33404 1.18015 1.33404C1.31479 1.33404 1.45075 1.33404 1.58539 1.33404C2.03594 1.33404 2.4865 1.33404 2.93705 1.33404C3.48625 1.33404 4.03678 1.33404 4.58598 1.33404C5.05786 1.33404 5.52975 1.33404 6.00163 1.33404C6.22557 1.33404 6.44952 1.33004 6.67346 1.33404C6.69346 1.33404 6.71479 1.33537 6.73478 1.33804C6.67613 1.33004 6.61614 1.32204 6.55749 1.31405C6.58682 1.31938 6.61481 1.32604 6.6428 1.33671C6.58948 1.31405 6.53616 1.29138 6.48418 1.27006C6.51617 1.28339 6.5455 1.30072 6.57482 1.32204C6.5295 1.28739 6.48551 1.25273 6.44019 1.21807C6.46285 1.23673 6.48284 1.25539 6.50151 1.27805C6.46685 1.23273 6.43219 1.18874 6.39753 1.14342C6.41886 1.17141 6.43619 1.19941 6.45085 1.23273C6.42819 1.17941 6.40553 1.12609 6.3842 1.07411C6.39487 1.1021 6.40286 1.13009 6.4082 1.15942C6.4002 1.10077 6.3922 1.04078 6.3842 0.982128C6.39487 1.06611 6.3882 1.15409 6.3882 1.23806C6.3882 1.40869 6.3882 1.58065 6.3882 1.75127C6.3882 2.14851 6.3882 2.54707 6.3882 2.94431C6.3882 3.03762 6.3882 3.13093 6.3882 3.22291C6.3882 3.39353 6.46285 3.57349 6.58282 3.69479C6.69879 3.81076 6.88808 3.89741 7.0547 3.88941C7.22666 3.88141 7.40528 3.82543 7.52659 3.69479C7.64656 3.56416 7.7212 3.4042 7.7212 3.22291C7.7212 2.74836 7.7212 2.27514 7.7212 1.80059C7.7212 1.56465 7.7212 1.33004 7.7212 1.0941C7.7212 0.891483 7.68521 0.6902 7.57857 0.51291C7.38795 0.192989 7.04537 0.00903481 6.67613 0.00236979C6.38154 -0.00296223 6.08694 0.00236979 5.79235 0.00236979C5.1925 0.00236979 4.59398 0.00236979 3.99412 0.00236979C3.37561 0.00236979 2.7571 0.00236979 2.13858 0.00236979C1.78667 0.00236979 1.43342 0.00236979 1.08151 0.00236979C0.981535 0.00236979 0.880227 0.0130338 0.782918 0.0343619C0.522982 0.090348 0.311034 0.270304 0.163071 0.483584C0.0537645 0.642212 0.00577635 0.844828 0.00177734 1.03545C0.000444335 1.0821 0.00177734 1.12743 0.00177734 1.17408C0.00177734 1.47934 0.00177734 1.78593 0.00177734 2.09119C0.00177734 2.60439 0.00177734 3.1176 0.00177734 3.63081C0.00177734 4.25865 0.00177734 4.88783 0.00177734 5.51568C0.00177734 6.16618 0.00177734 6.81669 0.00177734 7.46719C0.00177734 8.04838 0.00177734 8.62824 0.00177734 9.20943C0.00177734 9.62799 0.00177734 10.0452 0.00177734 10.4638C0.00177734 10.6264 -0.00222167 10.7904 0.00177734 10.953C0.0111084 11.4182 0.333695 11.8808 0.809578 11.9714C0.904221 11.9901 0.992199 11.9994 1.08551 11.9994C1.21348 11.9994 1.34011 11.9994 1.46808 11.9994C1.99195 11.9994 2.51582 11.9994 3.03969 11.9994C3.68353 11.9994 4.32871 11.9994 4.97255 11.9994C5.45243 11.9994 5.93098 11.9994 6.41086 11.9994C6.49884 11.9994 6.58815 12.0007 6.67613 11.9994C7.04137 11.9927 7.41461 11.7968 7.58657 11.4635C7.68122 11.2809 7.71987 11.0903 7.71987 10.8877C7.71987 10.3345 7.71987 9.78129 7.71987 9.22809C7.71987 9.0788 7.71987 8.9295 7.71987 8.78154C7.71987 8.61091 7.64522 8.43095 7.52525 8.30965C7.40928 8.19368 7.22 8.10704 7.05337 8.11503C6.88141 8.12303 6.70279 8.17902 6.58149 8.30965C6.46018 8.44162 6.38553 8.60291 6.38553 8.78287Z" fill="#404454"/>
<path d="M3.32644 6.67006C3.58504 6.67006 3.84231 6.67006 4.10091 6.67006C4.72076 6.67006 5.34061 6.67006 5.96045 6.67006C6.7096 6.67006 7.46008 6.67006 8.20923 6.67006C8.85707 6.67006 9.50491 6.67006 10.1541 6.67006C10.4687 6.67006 10.7846 6.67406 11.0992 6.67006C11.1032 6.67006 11.1085 6.67006 11.1125 6.67006C11.2831 6.67006 11.4631 6.59541 11.5844 6.47544C11.7004 6.35947 11.787 6.17019 11.779 6.00356C11.771 5.8316 11.715 5.65298 11.5844 5.53168C11.4538 5.41171 11.2938 5.33706 11.1125 5.33706C10.8539 5.33706 10.5966 5.33706 10.338 5.33706C9.71819 5.33706 9.09835 5.33706 8.4785 5.33706C7.72935 5.33706 6.97887 5.33706 6.22972 5.33706C5.58188 5.33706 4.93404 5.33706 4.28487 5.33706C3.97028 5.33706 3.65436 5.33306 3.33977 5.33706C3.33577 5.33706 3.33044 5.33706 3.32644 5.33706C3.15581 5.33706 2.97586 5.41171 2.85455 5.53168C2.73858 5.64765 2.65194 5.83694 2.65994 6.00356C2.66793 6.17552 2.72392 6.35414 2.85455 6.47544C2.98519 6.59408 3.14515 6.67006 3.32644 6.67006Z" fill="#404454"/>
<path d="M8.73175 4.55457C8.94636 4.76919 9.16098 4.9838 9.37559 5.19841C9.71817 5.541 10.0594 5.88224 10.402 6.22483C10.4807 6.30347 10.5606 6.38346 10.6393 6.4621C10.6393 6.14751 10.6393 5.83426 10.6393 5.51967C10.4247 5.73428 10.2101 5.9489 9.99544 6.16351C9.65286 6.50609 9.31161 6.84734 8.96903 7.18992C8.89038 7.26857 8.8104 7.34855 8.73175 7.4272C8.61045 7.5485 8.53713 7.72712 8.53713 7.89908C8.53713 8.06304 8.60911 8.25766 8.73175 8.37096C8.85839 8.48693 9.02501 8.57358 9.20364 8.56558C9.38092 8.55758 9.54755 8.4976 9.67552 8.37096C9.89013 8.15635 10.1047 7.94174 10.3194 7.72712C10.6619 7.38454 11.0032 7.04329 11.3458 6.70071C11.4244 6.62206 11.5044 6.54208 11.583 6.46343C11.8377 6.20883 11.8377 5.7756 11.583 5.521C11.3684 5.30639 11.1538 5.09177 10.9392 4.87716C10.5966 4.53458 10.2554 4.19333 9.91279 3.85075C9.83415 3.7721 9.75417 3.69212 9.67552 3.61347C9.55421 3.49217 9.37559 3.41885 9.20364 3.41885C9.03968 3.41885 8.84506 3.49084 8.73175 3.61347C8.61578 3.74011 8.52914 3.90673 8.53713 4.08536C8.54513 4.25998 8.60512 4.4266 8.73175 4.55457Z" fill="#404454"/>
</svg>
