<svg width="12" height="12" viewBox="0 0 12 12" fill="none" xmlns="http://www.w3.org/2000/svg">
<path d="M5.27662 2.40776C5.14198 2.27296 4.94903 2.21322 4.76193 2.24629C4.57443 2.28043 4.41516 2.40443 4.33633 2.57816L1.34435 9.1689C1.13075 9.0737 0.871607 9.1121 0.696759 9.28704L0.170087 9.81438C-0.0566956 10.0414 -0.0566956 10.4102 0.170087 10.6373L1.36113 11.8299C1.47432 11.9432 1.6232 12 1.77208 12C1.92096 12 2.06984 11.9432 2.18303 11.8299L2.7097 11.3025C2.88468 11.1273 2.92303 10.8681 2.82795 10.6544L3.75239 10.2337L4.35018 10.8323C4.46337 10.9456 4.61225 11.0024 4.76113 11.0024C4.91001 11.0024 5.05889 10.9456 5.17208 10.8323L6.031 9.97224C6.247 9.75597 6.25472 9.41224 6.0591 9.1837L9.40996 7.65875C9.4955 7.61984 9.57033 7.56074 9.62806 7.48652C9.68579 7.4123 9.72468 7.32518 9.74141 7.23261C9.75807 7.14006 9.75211 7.04485 9.72402 6.9551C9.69594 6.86536 9.64658 6.78376 9.58015 6.71727L5.27662 2.40776ZM2.35748 10.9499L1.8308 11.4772C1.8231 11.4849 1.81395 11.4911 1.80387 11.4953C1.79379 11.4994 1.78299 11.5016 1.77208 11.5016C1.76117 11.5016 1.75036 11.4994 1.74029 11.4953C1.73021 11.4911 1.72106 11.4849 1.71335 11.4772L0.522312 10.2846C0.514587 10.2769 0.508459 10.2678 0.504278 10.2577C0.500096 10.2476 0.497944 10.2368 0.497944 10.2258C0.497944 10.2149 0.500096 10.2041 0.504278 10.194C0.508459 10.1839 0.514587 10.1748 0.522312 10.167L1.04898 9.63971C1.06523 9.62344 1.08627 9.61531 1.10771 9.61531C1.12915 9.61531 1.15019 9.62344 1.16644 9.63971L2.35748 10.8323C2.38984 10.8648 2.38984 10.9173 2.35748 10.9499ZM5.67878 9.50211C5.71127 9.53464 5.71127 9.58717 5.67878 9.61971L4.81985 10.4797C4.81215 10.4875 4.803 10.4936 4.79292 10.4978C4.78284 10.502 4.77204 10.5041 4.76113 10.5041C4.75022 10.5041 4.73941 10.502 4.72934 10.4978C4.71926 10.4936 4.71011 10.4875 4.7024 10.4797L4.23659 10.0133L5.57904 9.40237L5.67878 9.50211ZM9.20369 7.20475L2.54298 10.2364C2.51088 10.2504 2.47426 10.2436 2.44989 10.2192L1.77887 9.54757C1.76683 9.53566 1.75875 9.52032 1.75573 9.50364C1.7527 9.48697 1.75488 9.46977 1.76196 9.45437L4.78976 2.78483C4.80534 2.75043 4.8345 2.7403 4.85075 2.73736C4.85501 2.73643 4.8602 2.73603 4.86593 2.73603C4.88244 2.73603 4.90415 2.74056 4.92399 2.76043L9.22806 7.06994C9.25496 7.09688 9.25403 7.12781 9.2511 7.14368C9.24817 7.15995 9.23818 7.18915 9.20369 7.20475ZM9.07891 3.26257L8.72669 2.9099L10.9057 0.728141L11.2579 1.08081L9.07891 3.26257ZM7.66735 2.49416H7.16917V0H7.66735V2.49416ZM11.985 4.32325V4.82205H9.49399V4.32325H11.985Z" fill="#404454"/>
</svg>
