<svg width="9" height="12" viewBox="0 0 9 12" fill="none" xmlns="http://www.w3.org/2000/svg">
<path fill-rule="evenodd" clip-rule="evenodd" d="M5.8533 2.59214H2.60703C2.53807 2.59214 2.48218 2.53619 2.48218 2.46713V0.905712C2.48218 0.836666 2.53807 0.780705 2.60703 0.780705L3.31841 0.780696C3.38048 0.340211 3.76569 0 4.23017 0C4.69464 0 5.07985 0.34023 5.14192 0.780696H5.8533C5.92227 0.780696 5.97815 0.836656 5.97815 0.905703V2.46712C5.97815 2.53619 5.92227 2.59214 5.8533 2.59214ZM2.7319 2.34214H5.72848V1.03072L5.02584 1.03071C4.95688 1.03071 4.901 0.974751 4.901 0.905705C4.901 0.544159 4.60005 0.249979 4.23019 0.249979C3.86032 0.249979 3.55939 0.54414 3.55939 0.905705C3.55939 0.974751 3.5035 1.03071 3.43454 1.03071H2.73191L2.7319 2.34214Z" fill="#404454"/>
<path fill-rule="evenodd" clip-rule="evenodd" d="M4.23213 1.77817C3.9636 1.77817 3.74512 1.55945 3.74512 1.29056C3.74512 1.02166 3.96356 0.802937 4.23213 0.802937C4.50069 0.802937 4.71914 1.02169 4.71914 1.29056C4.71914 1.55942 4.50065 1.77817 4.23213 1.77817ZM4.23213 1.05295C4.1013 1.05295 3.99482 1.15953 3.99482 1.29056C3.99482 1.42155 4.10126 1.52816 4.23213 1.52816C4.36298 1.52816 4.46943 1.42159 4.46943 1.29056C4.46943 1.15954 4.36296 1.05295 4.23213 1.05295Z" fill="#404454"/>
<path fill-rule="evenodd" clip-rule="evenodd" d="M6.79519 3.65263H1.6622C1.59323 3.65263 1.53735 3.59674 1.53735 3.52778C1.53735 3.45882 1.59323 3.40293 1.6622 3.40293H6.79514C6.8641 3.40293 6.91999 3.45882 6.91999 3.52778C6.91999 3.59674 6.86415 3.65263 6.79519 3.65263Z" fill="#404454"/>
<path fill-rule="evenodd" clip-rule="evenodd" d="M6.79519 5.17276H1.6622C1.59323 5.17276 1.53735 5.11687 1.53735 5.04791C1.53735 4.97895 1.59323 4.92306 1.6622 4.92306H6.79514C6.8641 4.92306 6.91999 4.97895 6.91999 5.04791C6.91999 5.11687 6.86415 5.17276 6.79519 5.17276Z" fill="#404454"/>
<path fill-rule="evenodd" clip-rule="evenodd" d="M6.79519 6.70848H1.6622C1.59323 6.70848 1.53735 6.65259 1.53735 6.58363C1.53735 6.51467 1.59323 6.45878 1.6622 6.45878H6.79514C6.8641 6.45878 6.91999 6.51467 6.91999 6.58363C6.91999 6.65259 6.86415 6.70848 6.79519 6.70848Z" fill="#404454"/>
<path fill-rule="evenodd" clip-rule="evenodd" d="M4.74302 8.87566C4.71718 8.87566 4.69136 8.86765 4.66943 8.85166L4.22958 8.53036L3.78972 8.85166C3.74592 8.88357 3.68658 8.88367 3.64273 8.8518C3.5989 8.81994 3.58062 8.76335 3.59743 8.71182L3.76669 8.19367L3.32559 7.87409C3.2817 7.84224 3.26331 7.78577 3.28004 7.73417C3.29675 7.68267 3.34471 7.64781 3.39878 7.64781C3.39871 7.64781 3.39884 7.64781 3.39878 7.64781L3.94351 7.64886L4.11079 7.13005C4.12744 7.07842 4.17543 7.04345 4.22959 7.04345C4.2838 7.04345 4.33174 7.07842 4.3484 7.13005L4.5157 7.64886L5.06012 7.64781C5.06006 7.64781 5.06022 7.64781 5.06012 7.64781C5.11419 7.64781 5.16241 7.68264 5.17912 7.73417C5.19587 7.78577 5.17743 7.84224 5.13356 7.87409L4.69247 8.19367L4.86171 8.71182C4.87857 8.76339 4.86028 8.8199 4.81641 8.8518C4.79453 8.86772 4.76877 8.87566 4.74302 8.87566ZM3.78532 7.89854L3.98688 8.04455C4.03083 8.07641 4.0492 8.13306 4.03236 8.18468L3.95502 8.42141L4.15602 8.2746C4.19988 8.24263 4.25938 8.24263 4.30318 8.2746L4.50414 8.42141L4.42682 8.18468C4.40991 8.13306 4.42831 8.07641 4.47227 8.04455L4.67382 7.89854L4.4251 7.89903C4.425 7.89903 4.42516 7.89903 4.4251 7.89903C4.37093 7.89903 4.32265 7.86406 4.30604 7.81244L4.22958 7.57534L4.15315 7.81244C4.13649 7.86406 4.08851 7.89903 4.03434 7.89903C4.03428 7.89903 4.03442 7.89903 4.03434 7.89903L3.78532 7.89854Z" fill="#404454"/>
<path fill-rule="evenodd" clip-rule="evenodd" d="M2.69859 9.85008C2.67277 9.85008 2.64693 9.84207 2.62501 9.82608L2.18515 9.50481L1.74529 9.82608C1.70149 9.85799 1.64215 9.85809 1.5983 9.82621C1.55446 9.79435 1.53619 9.73777 1.553 9.68624L1.72225 9.16808L1.28116 8.84853C1.23727 8.81669 1.21887 8.76021 1.23561 8.70861C1.25232 8.65711 1.30028 8.62225 1.35435 8.62225C1.35428 8.62225 1.35441 8.62225 1.35435 8.62225L1.89908 8.6233L2.06636 8.10449C2.08301 8.05286 2.13099 8.0179 2.18516 8.0179C2.23933 8.0179 2.28735 8.05286 2.30396 8.10449L2.47125 8.6233L3.01574 8.62225C3.01566 8.62225 3.0158 8.62225 3.01574 8.62225C3.06985 8.62225 3.118 8.65709 3.13472 8.70861C3.15146 8.76021 3.13306 8.81669 3.08916 8.84853L2.64806 9.16808L2.81732 9.68624C2.83417 9.73777 2.81586 9.79431 2.77203 9.82621C2.75009 9.84214 2.72435 9.85008 2.69859 9.85008ZM2.18515 9.22508C2.21097 9.22508 2.23681 9.23309 2.25873 9.24907L2.45973 9.3959L2.38239 9.15914C2.36551 9.10751 2.38391 9.05086 2.42787 9.01899L2.6294 8.87303L2.38066 8.87352C2.3806 8.87352 2.38074 8.87352 2.38066 8.87352C2.3265 8.87352 2.27828 8.83855 2.26163 8.78693L2.1852 8.54987L2.10876 8.78693C2.09212 8.83855 2.04412 8.87352 1.98996 8.87352C1.9899 8.87352 1.99003 8.87352 1.98996 8.87352L1.74097 8.87303L1.94249 9.01899C1.98644 9.05086 2.00481 9.10751 1.98798 9.15914L1.91064 9.3959L2.11164 9.24907C2.13349 9.23309 2.15933 9.22508 2.18515 9.22508Z" fill="#404454"/>
<path fill-rule="evenodd" clip-rule="evenodd" d="M6.78746 9.85008C6.76162 9.85008 6.7358 9.84207 6.71387 9.82608L6.27402 9.50481L5.83416 9.82608C5.79036 9.85799 5.731 9.85809 5.6872 9.82621C5.64335 9.79435 5.62508 9.73777 5.64191 9.68624L5.81116 9.16808L5.37003 8.84853C5.32613 8.81669 5.30774 8.76021 5.32447 8.70861C5.34123 8.65711 5.38915 8.62225 5.44322 8.62225C5.44312 8.62225 5.44331 8.62225 5.44322 8.62225L5.98793 8.6233L6.15522 8.10449C6.17186 8.05286 6.21985 8.0179 6.27402 8.0179C6.32819 8.0179 6.37621 8.05286 6.39282 8.10449L6.56013 8.6233L7.10454 8.62225C7.10448 8.62225 7.10465 8.62225 7.10454 8.62225C7.15861 8.62225 7.20683 8.65709 7.22354 8.70861C7.2403 8.76021 7.22185 8.81669 7.17799 8.84853L6.7369 9.16808L6.90613 9.68624C6.923 9.73777 6.9047 9.79431 6.86083 9.82621C6.83896 9.84214 6.81321 9.85008 6.78746 9.85008ZM6.27402 9.22508C6.29984 9.22508 6.32568 9.23309 6.3476 9.24907L6.5486 9.3959L6.47128 9.15914C6.45438 9.10751 6.47278 9.05086 6.51674 9.01899L6.71825 8.87303L6.46957 8.87352C6.46946 8.87352 6.46962 8.87352 6.46957 8.87352C6.4154 8.87352 6.36711 8.83855 6.3505 8.78693L6.27403 8.54984L6.1976 8.78693C6.18095 8.83855 6.13296 8.87352 6.07879 8.87352C6.0787 8.87352 6.07889 8.87352 6.07879 8.87352L5.82985 8.87303L6.03136 9.01899C6.07536 9.05086 6.09372 9.10751 6.07682 9.15914L5.99947 9.39587L6.20047 9.24909C6.22236 9.23309 6.24821 9.22508 6.27402 9.22508Z" fill="#404454"/>
<path fill-rule="evenodd" clip-rule="evenodd" d="M8.33591 11.9987H0.124851C0.0558906 11.9987 0 11.9428 0 11.8737V1.29433C0 1.22528 0.0558906 1.16933 0.124851 1.16933H2.60726C2.67622 1.16933 2.73211 1.22528 2.73211 1.29433C2.73211 1.36338 2.67622 1.41934 2.60726 1.41934H0.249699V11.7487H8.2111V1.41934H5.85352C5.78456 1.41934 5.72868 1.36338 5.72868 1.29433C5.72868 1.22528 5.78456 1.16933 5.85352 1.16933H8.33593C8.4049 1.16933 8.46078 1.22528 8.46078 1.29433V11.8737C8.46074 11.9428 8.40489 11.9987 8.33591 11.9987Z" fill="#404454"/>
<path fill-rule="evenodd" clip-rule="evenodd" d="M7.66403 11.3388H0.797214C0.728254 11.3388 0.672363 11.2828 0.672363 11.2138V1.98035C0.672363 1.9113 0.728254 1.85534 0.797214 1.85534H2.60749C2.67645 1.85534 2.73234 1.9113 2.73234 1.98035C2.73234 2.04939 2.67645 2.10535 2.60749 2.10535H0.922065V11.0888L7.53916 11.0888V2.10537H5.85372C5.78476 2.10537 5.72888 2.04941 5.72888 1.98036C5.72888 1.91131 5.78476 1.85535 5.85372 1.85535H7.664C7.73297 1.85535 7.78885 1.91131 7.78885 1.98036V11.2138C7.78885 11.2829 7.73299 11.3388 7.66403 11.3388Z" fill="#404454"/>
</svg>
