<svg width="13" height="12" viewBox="0 0 13 12" fill="none" xmlns="http://www.w3.org/2000/svg">
<path d="M3.85719 1.64385C3.84712 1.19881 3.66103 0.77591 3.3397 0.467836C3.01838 0.159763 2.58802 -0.00835777 2.14295 0.000319994C1.69788 -0.00835777 1.26753 0.159763 0.946196 0.467836C0.624868 0.77591 0.438778 1.19881 0.428711 1.64385C0.428711 2.85731 1.69018 4.48306 2.14295 5.02754C2.59551 4.48284 3.85719 2.85581 3.85719 1.64385ZM0.857271 1.71456C0.857271 1.46028 0.932675 1.2117 1.07395 1.00027C1.21522 0.788845 1.41602 0.624057 1.65094 0.526746C1.88587 0.429436 2.14438 0.403976 2.39377 0.453584C2.64317 0.503192 2.87226 0.625641 3.05206 0.805447C3.23187 0.985252 3.35432 1.21434 3.40393 1.46374C3.45353 1.71313 3.42807 1.97164 3.33076 2.20657C3.23345 2.4415 3.06867 2.64229 2.85724 2.78356C2.64581 2.92484 2.39723 3.00024 2.14295 3.00024C1.80207 2.9999 1.47525 2.86433 1.23421 2.6233C0.993176 2.38226 0.857611 2.05544 0.857271 1.71456Z" fill="#404454"/>
<path d="M2.14276 2.57168C2.61614 2.57168 2.99988 2.18793 2.99988 1.71456C2.99988 1.24118 2.61614 0.857437 2.14276 0.857437C1.66939 0.857437 1.28564 1.24118 1.28564 1.71456C1.28564 2.18793 1.66939 2.57168 2.14276 2.57168Z" fill="#404454"/>
<path d="M11.4511 10.7857C11.3496 10.9213 11.2561 11.0413 11.1743 11.1429H11.3568C11.4137 11.1429 11.4682 11.1655 11.5084 11.2056C11.5485 11.2458 11.5711 11.3003 11.5711 11.3572C11.5711 11.414 11.5485 11.4685 11.5084 11.5087C11.4682 11.5489 11.4137 11.5714 11.3568 11.5714H10.0712C10.0143 11.5714 9.95982 11.5489 9.91964 11.5087C9.87945 11.4685 9.85688 11.414 9.85688 11.3572C9.85688 11.3003 9.87945 11.2458 9.91964 11.2056C9.95982 11.1655 10.0143 11.1429 10.0712 11.1429H10.2537C10.1719 11.0413 10.0784 10.9213 9.97688 10.7857C9.66655 10.8292 9.37276 10.9523 9.12404 11.1429H1.92852C1.53071 11.1429 1.14918 10.9848 0.867888 10.7036C0.586591 10.4223 0.42856 10.0407 0.42856 9.64292C0.42856 9.24511 0.586591 8.86358 0.867888 8.58229C1.14918 8.30099 1.53071 8.14296 1.92852 8.14296H6.21412C6.61193 8.14296 6.99345 7.98493 7.27475 7.70363C7.55605 7.42233 7.71408 7.04081 7.71408 6.643C7.71408 6.24519 7.55605 5.86367 7.27475 5.58237C6.99345 5.30107 6.61193 5.14304 6.21412 5.14304H3.73276C3.48404 4.95242 3.19025 4.82937 2.87992 4.78584C2.77835 4.92147 2.68493 5.04147 2.60307 5.14304H2.78564C2.84247 5.14304 2.89697 5.16562 2.93716 5.2058C2.97734 5.24599 2.99992 5.30049 2.99992 5.35732C2.99992 5.41415 2.97734 5.46865 2.93716 5.50884C2.89697 5.54902 2.84247 5.5716 2.78564 5.5716H1.49996C1.44313 5.5716 1.38863 5.54902 1.34844 5.50884C1.30826 5.46865 1.28568 5.41415 1.28568 5.35732C1.28568 5.30049 1.30826 5.24599 1.34844 5.2058C1.38863 5.16562 1.44313 5.14304 1.49996 5.14304H1.68253C1.60067 5.04147 1.50725 4.92147 1.40568 4.78584C0.772479 4.91012 0.42856 5.16447 0.42856 5.35732C0.42856 5.6196 1.09626 6.00016 2.1428 6.00016C2.92385 6.00016 3.49276 5.78824 3.73233 5.5716H6.21412C6.49827 5.5716 6.77079 5.68448 6.97171 5.88541C7.17264 6.08633 7.28552 6.35885 7.28552 6.643C7.28552 6.92715 7.17264 7.19967 6.97171 7.40059C6.77079 7.60152 6.49827 7.7144 6.21412 7.7144H1.92852C1.41704 7.7144 0.926518 7.91758 0.56485 8.27925C0.203183 8.64092 0 9.13144 0 9.64292C0 10.1544 0.203183 10.6449 0.56485 11.0066C0.926518 11.3683 1.41704 11.5714 1.92852 11.5714H9.12447C9.36403 11.7881 9.93295 12 10.714 12C11.7605 12 12.4282 11.6194 12.4282 11.3572C12.4282 11.1643 12.0854 10.91 11.4511 10.7857Z" fill="#404454"/>
<path d="M10.7141 8.57152C11.1874 8.57152 11.5712 8.18777 11.5712 7.7144C11.5712 7.24102 11.1874 6.85728 10.7141 6.85728C10.2407 6.85728 9.85693 7.24102 9.85693 7.7144C9.85693 8.18777 10.2407 8.57152 10.7141 8.57152Z" fill="#404454"/>
<path d="M12.4285 7.64368C12.41 7.20145 12.2213 6.78347 11.9018 6.4771C11.5824 6.17073 11.1569 5.99967 10.7142 5.99967C10.2716 5.99967 9.84612 6.17073 9.52666 6.4771C9.2072 6.78347 9.0185 7.20145 9 7.64368C9 8.85715 10.2615 10.4829 10.7142 11.0274C11.1668 10.4827 12.4285 8.85565 12.4285 7.64368ZM9.42856 7.7144C9.42856 7.46011 9.50396 7.21154 9.64524 7.00011C9.78651 6.78868 9.9873 6.62389 10.2222 6.52658C10.4572 6.42927 10.7157 6.40381 10.9651 6.45342C11.2145 6.50303 11.4435 6.62548 11.6234 6.80528C11.8032 6.98509 11.9256 7.21417 11.9752 7.46357C12.0248 7.71297 11.9994 7.97148 11.9021 8.2064C11.8047 8.44133 11.64 8.64213 11.4285 8.7834C11.2171 8.92467 10.9685 9.00008 10.7142 9.00008C10.3734 8.99974 10.0465 8.86417 9.8055 8.62313C9.56446 8.3821 9.4289 8.05528 9.42856 7.7144Z" fill="#404454"/>
</svg>
